<?xml version="1.0" standalone="no"?>
<!DOCTYPE svg PUBLIC "-//W3C//DTD SVG 20010904//EN"
 "http://www.w3.org/TR/2001/REC-SVG-20010904/DTD/svg10.dtd">
<svg version="1.0" xmlns="http://www.w3.org/2000/svg"
 width="450.000000pt" height="450.000000pt" viewBox="0 0 450.000000 450.000000"
 preserveAspectRatio="xMidYMid meet">
<metadata>
Created by potrace 1.14, written by Peter Selinger 2001-2017
</metadata>
<g transform="translate(0.000000,450.000000) scale(0.100000,-0.100000)"
fill="#000000" stroke="none">
<path d="M0 3859 l0 -642 51 68 c56 73 158 179 229 236 101 82 314 209 327
195 3 -2 -23 -19 -57 -36 -34 -17 -73 -42 -87 -56 -13 -13 -28 -24 -34 -24
-11 0 -28 -12 -74 -55 -61 -56 -79 -70 -70 -55 11 19 -75 -57 -94 -84 -8 -11
-9 -16 -3 -12 7 4 12 2 12 -3 0 -6 -7 -11 -15 -11 -8 0 -12 -6 -9 -13 3 -8 -2
-20 -11 -27 -8 -7 -15 -17 -15 -23 0 -6 -9 -30 -21 -53 -15 -32 -25 -42 -40
-39 -12 2 -19 -2 -19 -11 0 -8 4 -14 10 -14 5 0 7 -7 4 -15 -4 -8 -11 -12 -16
-9 -6 4 -14 0 -19 -7 -13 -22 -11 -29 8 -22 15 6 16 5 3 -9 -8 -9 -18 -14 -21
-12 -4 2 -9 -6 -12 -18 -4 -12 -2 -25 4 -28 5 -4 2 -20 -8 -41 -16 -31 -18
-82 -21 -592 -1 -363 1 -565 8 -577 7 -12 7 -21 0 -25 -17 -10 -11 -38 14 -69
15 -18 28 -26 36 -21 8 5 11 4 7 -2 -8 -13 46 -95 85 -128 32 -27 27 -32 -12
-10 -40 23 -46 17 -16 -14 15 -16 27 -33 27 -38 -1 -4 15 -25 35 -46 20 -20
32 -37 26 -37 -6 0 5 -17 26 -38 20 -21 56 -64 79 -95 24 -31 46 -56 50 -55 5
2 9 -1 10 -6 1 -4 39 -30 85 -57 107 -63 93 -63 -29 1 -53 27 -98 50 -101 50
-21 0 95 -68 194 -114 28 -13 55 -29 58 -35 4 -6 14 -11 22 -11 16 0 192 -77
208 -91 14 -12 -75 17 -120 40 -22 11 -51 22 -65 24 -13 2 -18 2 -11 0 7 -3
10 -8 7 -13 -7 -12 37 -40 67 -44 12 -1 33 -8 46 -15 12 -6 28 -9 34 -5 7 5 8
3 3 -6 -6 -10 -4 -12 7 -7 9 3 19 3 22 0 3 -4 20 -8 38 -10 18 -2 35 -8 39
-14 3 -6 19 -12 35 -13 16 -1 35 -5 42 -9 6 -5 15 -6 20 -4 4 3 34 -2 67 -9
l60 -14 -85 6 c-348 24 -745 253 -983 567 l-37 49 0 -234 0 -233 107 -54 c58
-30 145 -67 192 -82 94 -31 89 -37 -11 -14 -82 19 -192 57 -246 84 l-42 21 0
-400 c0 -220 2 -400 5 -400 2 0 183 106 402 236 750 446 808 480 947 559 76
44 140 84 143 90 2 6 -25 70 -60 141 -82 163 -91 185 -170 379 -310 763 -468
1579 -461 2375 1 124 5 282 9 353 l8 127 -412 0 -411 0 0 -641z m690 -113
c-14 -7 -36 -16 -50 -20 -14 -3 -7 3 15 13 45 22 73 27 35 7z m140 -451 c0 -2
-10 -9 -22 -15 -22 -11 -22 -10 -4 4 21 17 26 19 26 11z m-50 -29 c0 -2 -34
-31 -75 -66 -41 -35 -75 -68 -75 -75 0 -7 -11 -24 -25 -39 -14 -15 -25 -31
-25 -37 0 -5 -4 -9 -9 -9 -9 0 -57 -95 -93 -185 -34 -86 -62 -202 -73 -303 -8
-64 22 -256 54 -352 15 -47 24 -86 20 -88 -5 -2 4 -20 19 -39 25 -34 25 -36 4
-24 -18 10 -22 9 -22 -3 0 -8 5 -18 10 -21 6 -4 8 -11 4 -16 -3 -5 9 -23 27
-40 18 -17 34 -36 35 -42 1 -7 16 -36 33 -65 17 -29 31 -55 31 -58 0 -18 186
-176 253 -216 45 -27 89 -55 98 -64 9 -8 20 -14 25 -13 5 1 23 -3 39 -10 17
-7 68 -22 115 -32 84 -19 84 -19 23 -14 -190 17 -409 124 -561 274 -121 120
-205 262 -259 440 -25 80 -27 99 -27 266 0 168 2 186 28 270 50 164 124 291
235 409 71 74 191 170 191 152z m357 -2342 c-3 -3 -12 -4 -19 -1 -8 3 -5 6 6
6 11 1 17 -2 13 -5z"/>
<path d="M465 2080 c-3 -5 -1 -10 4 -10 6 0 11 5 11 10 0 6 -2 10 -4 10 -3 0
-8 -4 -11 -10z"/>
<path d="M962 4468 c0 -17 -4 -34 -9 -37 -4 -3 -9 -11 -10 -18 -12 -64 -13
-77 -2 -84 10 -6 10 -16 2 -43 -6 -20 -7 -36 -2 -36 4 0 6 -7 3 -15 -4 -8 -1
-15 5 -15 6 0 11 5 11 10 0 6 6 10 13 10 7 0 18 9 25 21 21 32 24 16 6 -27 -9
-21 -12 -35 -8 -31 5 5 14 -7 21 -25 11 -32 11 -31 6 16 -7 57 8 57 27 0 10
-30 9 -38 -4 -53 -9 -10 -16 -24 -16 -32 1 -12 2 -11 9 1 5 8 28 35 51 60 38
41 40 42 29 15 -7 -16 -18 -35 -24 -40 -7 -6 -15 -21 -20 -35 -7 -24 -7 -24 9
-5 27 34 17 2 -20 -68 -19 -37 -33 -67 -29 -67 3 0 23 28 45 63 48 74 53 59 8
-22 -30 -55 -31 -58 -15 -81 l17 -24 2 29 c0 17 1 36 1 43 -1 6 3 12 9 12 9 0
3 -58 -9 -90 -9 -23 -9 -42 0 -75 20 -72 27 -202 13 -247 -6 -20 -5 -28 4 -28
7 0 10 7 5 18 -5 14 -4 15 7 4 10 -10 10 -16 0 -32 -7 -11 -8 -20 -3 -20 14 0
23 35 15 64 -4 16 -1 31 8 40 13 12 15 8 16 -36 1 -62 21 -110 42 -103 12 5
13 4 3 -6 -16 -16 -17 -33 -2 -23 7 4 9 -1 7 -12 -2 -11 -10 -18 -18 -16 -10
2 -11 0 -3 -10 13 -15 5 -68 -10 -68 -5 0 -3 -8 5 -17 9 -10 19 -29 23 -41 6
-22 5 -23 -14 -13 -23 13 -26 9 -11 -19 6 -10 11 -37 12 -59 1 -23 5 -41 10
-41 11 0 10 -38 -2 -45 -5 -3 -10 -14 -10 -25 0 -20 -23 -33 -37 -19 -5 5 -16
-3 -26 -21 -19 -31 -9 -42 13 -15 10 12 15 10 36 -12 13 -14 24 -35 24 -47 0
-12 3 -32 7 -45 4 -17 3 -22 -5 -17 -8 5 -10 -2 -6 -22 4 -18 0 -41 -10 -59
-10 -21 -13 -39 -7 -59 8 -25 9 -27 16 -10 8 18 9 18 22 0 15 -21 17 -38 3
-29 -17 11 -21 -18 -10 -70 6 -28 10 -68 9 -90 -2 -68 -1 -79 7 -105 7 -23 9
-22 20 20 10 38 12 40 12 15 0 -16 7 -59 16 -95 l16 -65 -4 52 c-1 29 1 50 6
47 4 -3 8 2 8 11 0 9 11 41 25 71 14 30 25 65 25 77 1 12 7 33 15 47 13 24 13
23 8 -20 -8 -68 -32 -153 -44 -161 -6 -3 -13 -28 -15 -55 -3 -27 -6 -66 -8
-87 -4 -36 -3 -38 19 -33 13 3 34 2 47 -3 13 -6 17 -10 9 -10 -9 -1 -10 -5 -3
-13 14 -18 4 -101 -13 -111 -8 -4 -12 -14 -9 -22 4 -8 1 -15 -5 -15 -8 0 -9
-5 -3 -16 15 -27 2 -74 -20 -74 -17 0 -19 -4 -13 -27 4 -16 11 -44 15 -63 l7
-35 14 48 c9 31 18 46 26 43 13 -5 13 27 0 40 -4 4 -7 14 -7 23 0 11 3 12 11
4 9 -9 16 -6 29 9 17 21 47 17 34 -4 -10 -15 -18 -74 -18 -130 -1 -27 -4 -48
-8 -48 -11 0 -9 -32 2 -50 9 -13 11 -13 20 0 8 12 10 11 10 -7 0 -13 -3 -23
-7 -23 -5 0 -6 -28 -4 -62 4 -62 4 -62 12 -23 4 22 5 48 3 58 -3 9 -1 17 4 17
12 0 13 75 2 106 -14 35 -3 30 16 -8 9 -18 17 -46 16 -63 0 -16 4 -33 10 -36
6 -4 7 -12 4 -18 -4 -6 -12 -9 -17 -6 -5 4 -9 -16 -9 -44 0 -28 5 -51 10 -51
6 0 10 7 10 16 0 24 24 11 30 -17 3 -13 14 -25 24 -27 13 -3 16 0 11 10 -3 7
5 0 19 -17 14 -16 26 -34 25 -40 0 -5 -3 -4 -6 3 -8 19 -23 14 -23 -9 0 -11
-4 -17 -10 -14 -15 10 -12 2 15 -35 27 -36 33 -56 13 -44 -8 5 -9 2 -5 -10 4
-10 7 -20 7 -22 0 -3 5 -2 10 1 6 3 19 -15 30 -40 24 -55 25 -65 6 -65 -27 0
-39 -54 -25 -110 7 -27 17 -50 21 -50 5 0 6 5 2 12 -4 7 -3 8 5 4 7 -4 140 67
317 169 178 103 312 174 320 171 9 -3 13 -10 10 -15 -3 -5 -116 -75 -251 -156
-134 -81 -243 -151 -242 -157 1 -6 -4 -13 -12 -16 -9 -3 -11 0 -6 8 6 9 3 9
-14 0 -12 -6 -19 -15 -16 -20 3 -6 -1 -7 -10 -4 -11 5 -14 2 -9 -10 3 -9 2
-16 -2 -16 -5 0 -27 -15 -48 -33 l-39 -33 17 -46 c10 -26 32 -59 49 -75 33
-30 29 -20 -15 41 -15 21 -28 44 -28 50 0 6 9 -2 19 -19 25 -41 86 -104 78
-82 -4 9 -2 17 3 17 12 0 31 -35 24 -43 -3 -3 3 -11 15 -18 14 -9 17 -17 10
-25 -7 -9 4 -26 37 -59 35 -36 43 -49 33 -56 -11 -7 -11 -9 -1 -9 8 0 10 -5 5
-12 -16 -26 -12 -39 9 -32 25 8 236 105 510 234 l197 92 -78 117 c-468 698
-749 1512 -812 2351 -14 184 -6 704 14 858 l12 102 -391 0 -391 0 -1 -32z m98
-143 c0 -8 -4 -15 -10 -15 -5 0 -10 7 -10 15 0 8 5 15 10 15 6 0 10 -7 10 -15z
m30 -10 c0 -8 -4 -15 -10 -15 -5 0 -10 7 -10 15 0 8 5 15 10 15 6 0 10 -7 10
-15z m0 -75 c0 -5 -4 -10 -10 -10 -5 0 -10 5 -10 10 0 6 5 10 10 10 6 0 10 -4
10 -10z m10 -24 c0 -2 -7 -9 -15 -16 -13 -11 -14 -10 -9 4 5 14 24 23 24 12z
m131 -33 c-12 -20 -14 -14 -5 12 4 9 9 14 11 11 3 -2 0 -13 -6 -23z m-51 -208
c0 -8 -2 -15 -4 -15 -2 0 -6 7 -10 15 -3 8 -1 15 4 15 6 0 10 -7 10 -15z m77
-7 c-3 -8 -6 -5 -6 6 -1 11 2 17 5 13 3 -3 4 -12 1 -19z m-51 -35 c-11 -11
-19 6 -11 24 8 17 8 17 12 0 3 -10 2 -21 -1 -24z m-79 -15 c-3 -8 -6 -5 -6 6
-1 11 2 17 5 13 3 -3 4 -12 1 -19z m76 -26 c-3 -12 -9 -22 -14 -22 -5 0 -3 11
3 25 13 30 20 28 11 -3z m-49 -38 c4 -15 5 -29 1 -32 -3 -3 -5 2 -5 12 0 9 -4
14 -10 11 -5 -3 -10 -16 -10 -27 0 -12 -3 -19 -6 -15 -9 8 5 77 15 77 5 0 12
-12 15 -26z m83 -36 c-2 -13 -4 -5 -4 17 -1 22 1 32 4 23 2 -10 2 -28 0 -40z
m-60 -20 c-3 -8 -6 -5 -6 6 -1 11 2 17 5 13 3 -3 4 -12 1 -19z m23 -75 c0 -43
-5 -41 -13 5 -4 18 -2 32 3 32 6 0 10 -16 10 -37z m40 -48 c0 -8 -2 -15 -4
-15 -2 0 -6 7 -10 15 -3 8 -1 15 4 15 6 0 10 -7 10 -15z m-20 -39 c0 -8 -4
-18 -10 -21 -5 -3 -10 3 -10 14 0 12 5 21 10 21 6 0 10 -6 10 -14z m21 -67
c-9 -23 -10 -23 -10 -2 -1 12 2 30 6 40 6 15 8 15 11 2 1 -8 -2 -26 -7 -40z
m-55 14 c1 -10 4 -30 9 -45 4 -17 3 -28 -3 -28 -11 0 -22 33 -22 68 0 26 15
30 16 5z m41 -75 c-3 -8 -6 -5 -6 6 -1 11 2 17 5 13 3 -3 4 -12 1 -19z m-10
-120 c-3 -8 -6 -5 -6 6 -1 11 2 17 5 13 3 -3 4 -12 1 -19z m-10 -40 c-3 -8 -6
-5 -6 6 -1 11 2 17 5 13 3 -3 4 -12 1 -19z m33 2 c0 -5 -2 -10 -4 -10 -3 0 -8
5 -11 10 -3 6 -1 10 4 10 6 0 11 -4 11 -10z m-10 -50 c0 -5 -4 -10 -10 -10 -5
0 -10 5 -10 10 0 6 5 10 10 10 6 0 10 -4 10 -10z m44 -36 c11 -27 7 -37 -9
-24 -16 14 -20 40 -6 40 5 0 12 -7 15 -16z m42 -183 c-9 -16 -16 -37 -16 -46
0 -23 -24 -13 -28 11 -2 20 50 92 56 75 2 -5 -4 -23 -12 -40z m-46 -98 c0 -22
-2 -25 -10 -13 -13 20 -13 40 0 40 6 0 10 -12 10 -27z m55 -16 c-4 -12 -17
-44 -30 -72 -12 -27 -26 -66 -29 -87 -4 -20 -13 -39 -21 -42 -17 -6 -18 -2 -6
22 10 21 27 67 53 149 11 35 24 60 29 57 6 -3 7 -15 4 -27z m32 -129 c-3 -7
-5 -2 -5 12 0 14 2 19 5 13 2 -7 2 -19 0 -25z m-90 -180 c-3 -8 -6 -5 -6 6 -1
11 2 17 5 13 3 -3 4 -12 1 -19z m203 -434 c0 -16 -26 -19 -34 -5 -4 5 -3 16 0
25 5 13 9 14 20 5 8 -6 14 -18 14 -25z m60 -306 c0 -15 5 -30 10 -33 6 -3 10
-14 9 -23 0 -11 -3 -12 -6 -4 -11 28 -25 11 -18 -24 4 -24 3 -34 -4 -29 -6 3
-11 15 -11 26 0 11 -4 28 -9 37 -12 22 9 108 21 89 4 -6 8 -24 8 -39z m67 -50
c-3 -8 -6 -5 -6 6 -1 11 2 17 5 13 3 -3 4 -12 1 -19z m4 -165 c13 -16 12 -17
-3 -4 -17 13 -22 21 -14 21 2 0 10 -8 17 -17z m140 -170 c13 -16 12 -17 -3 -4
-10 7 -18 15 -18 17 0 8 8 3 21 -13z m-86 -58 l7 -40 -22 27 c-18 23 -19 30
-8 42 16 17 14 19 23 -29z m35 -30 c7 -9 8 -15 2 -15 -5 0 -12 7 -16 15 -3 8
-4 15 -2 15 2 0 9 -7 16 -15z m111 -438 c12 -22 12 -22 -10 -3 -11 11 -21 23
-21 28 0 14 19 -1 31 -25z"/>
<path d="M1830 4486 c0 -22 17 -28 24 -10 9 22 8 24 -9 24 -8 0 -15 -6 -15
-14z"/>
<path d="M1915 4468 c-9 -38 -34 -91 -69 -143 -22 -32 -60 -135 -52 -142 2 -2
15 26 31 62 15 36 31 67 35 70 4 2 7 -23 6 -55 0 -33 -4 -60 -8 -60 -4 0 -8
-8 -8 -17 1 -17 1 -17 11 0 5 9 13 17 17 17 4 0 7 -52 7 -116 0 -64 3 -118 6
-120 10 -6 -3 -98 -15 -106 -8 -6 -8 -8 0 -8 11 0 24 -32 29 -75 2 -11 6 -38
9 -60 5 -29 4 -34 -3 -20 -9 18 -10 17 -10 -7 -1 -19 3 -26 13 -22 9 4 13 -3
12 -23 0 -15 -5 -31 -10 -34 -9 -7 23 -69 35 -69 4 0 10 6 13 13 3 6 3 -3 0
-20 -5 -28 -3 -32 12 -26 14 5 16 2 11 -16 -4 -18 -3 -20 9 -10 11 9 14 8 14
-5 0 -9 5 -16 10 -16 6 0 10 -5 10 -11 0 -8 -4 -8 -12 -2 -7 6 -21 13 -31 16
-27 10 -17 -36 16 -70 18 -20 24 -32 17 -43 -7 -12 -10 -11 -16 5 -10 29 -25
46 -35 40 -4 -3 1 -15 12 -26 14 -14 20 -31 17 -54 -1 -19 3 -40 10 -47 6 -6
12 -17 12 -23 0 -7 9 -20 19 -29 10 -9 21 -27 24 -39 2 -12 8 -30 11 -39 5
-11 3 -16 -6 -14 -22 3 -39 17 -33 27 4 5 2 9 -3 9 -6 0 -13 -7 -16 -16 -4 -9
-2 -13 5 -8 7 4 9 -1 7 -12 -2 -11 -9 -18 -14 -17 -5 1 -9 -16 -9 -38 0 -21 1
-39 2 -39 1 0 7 18 13 40 12 46 32 55 24 10 -5 -23 -3 -30 9 -30 11 0 15 -10
14 -35 -1 -21 -4 -30 -9 -22 -5 8 -8 5 -8 -10 0 -12 -4 -25 -10 -28 -5 -3 -10
-11 -10 -18 0 -6 7 -2 16 9 15 18 15 18 10 -8 -5 -20 -1 -33 14 -48 11 -11 20
-25 20 -32 0 -6 -7 -3 -15 8 -13 17 -14 16 -5 -14 5 -19 7 -47 3 -63 -3 -16
-1 -35 4 -41 13 -17 22 -68 12 -68 -4 0 -10 6 -12 13 -3 6 -6 7 -6 1 -1 -6 8
-28 19 -50 13 -27 19 -33 20 -19 0 17 2 17 10 5 13 -20 13 -43 0 -35 -5 3 -10
1 -10 -4 0 -18 28 -13 39 7 14 24 14 -4 0 -30 -9 -16 -8 -19 3 -16 16 6 48
-29 48 -52 0 -10 6 -20 14 -23 10 -4 13 1 10 16 -4 19 -3 19 8 -3 7 -14 16
-28 21 -31 5 -4 5 -9 -1 -13 -11 -7 -4 -46 8 -46 5 0 11 6 13 13 4 8 6 8 6 -2
1 -11 5 -10 15 4 14 19 15 19 35 1 16 -14 18 -23 10 -37 -13 -25 -3 -116 17
-146 18 -29 12 -42 -12 -22 -15 12 -16 11 -9 -11 4 -14 11 -32 15 -40 5 -9 2
-19 -8 -26 -14 -11 -13 -16 13 -50 28 -36 20 -38 -19 -5 -18 15 -18 15 -7 -6
6 -12 16 -25 21 -28 6 -4 7 -11 4 -17 -4 -7 -2 -8 5 -4 20 12 25 -25 7 -54
-16 -27 -15 -29 5 -35 14 -5 18 -12 14 -23 -3 -9 -3 -13 1 -10 8 8 44 -34 44
-51 0 -6 5 -11 10 -11 6 0 10 -4 10 -9 0 -5 -6 -9 -12 -8 -37 1 -47 -4 -41
-20 4 -11 3 -14 -5 -9 -7 4 -12 14 -12 22 0 8 -4 14 -10 14 -12 0 -13 -37 -1
-44 12 -8 21 -46 11 -46 -5 0 -12 9 -15 21 -4 11 -9 18 -12 15 -3 -3 4 -20 15
-38 14 -22 19 -42 15 -58 -5 -18 -3 -22 9 -17 12 4 14 1 11 -14 -5 -16 -8 -17
-22 -7 -9 7 -20 18 -24 23 -5 6 -6 2 -3 -8 3 -10 6 -21 6 -23 0 -2 6 -4 14 -4
19 0 41 -27 25 -32 -9 -3 -8 -10 2 -28 22 -39 41 -60 49 -55 4 3 7 -3 6 -13 0
-9 4 -16 9 -16 6 1 21 -12 35 -30 22 -28 22 -29 2 -12 -12 11 -25 16 -28 13
-11 -10 35 -74 57 -80 12 -3 18 -10 15 -15 -3 -5 6 -21 21 -36 14 -14 20 -26
14 -26 -19 0 6 -38 29 -45 11 -4 18 -11 15 -16 -4 -5 -2 -9 3 -9 4 0 15 -16
22 -35 8 -20 20 -41 27 -47 11 -9 10 -13 -4 -24 -44 -34 115 37 492 221 132
64 283 137 335 162 52 25 97 48 100 50 2 2 -9 16 -26 31 -102 91 -277 306
-398 489 -231 349 -382 751 -451 1193 -26 164 -31 541 -10 720 18 157 54 348
84 448 l19 62 -398 0 -399 0 -4 -27 -4 -28 -2 28 c-1 25 -4 27 -45 27 -42 0
-45 -2 -51 -32z m89 -52 c-3 -9 -10 -16 -14 -16 -17 0 -21 20 -9 41 10 19 13
20 20 6 5 -8 6 -22 3 -31z m-20 -25 c3 -4 -1 -17 -9 -27 -8 -10 -15 -29 -15
-41 0 -13 -4 -23 -10 -23 -18 0 -16 64 3 86 14 16 24 17 31 5z m-90 -167 c3
-8 2 -12 -4 -9 -6 3 -10 10 -10 16 0 14 7 11 14 -7z m213 -876 c-3 -8 -6 -5
-6 6 -1 11 2 17 5 13 3 -3 4 -12 1 -19z m-22 -49 c-10 -15 -25 -10 -19 6 4 8
10 12 15 9 5 -3 7 -10 4 -15z m-5 -96 c0 -2 -4 -3 -10 -3 -17 0 -41 46 -34 65
6 14 11 10 26 -21 10 -20 18 -39 18 -41z m-6 -118 c-4 -8 -1 -15 5 -15 6 0 11
-5 11 -12 0 -6 -9 -3 -20 7 -16 14 -17 20 -8 27 18 11 18 10 12 -7z m20 -153
c3 -5 -1 -9 -9 -9 -8 0 -12 4 -9 9 3 4 7 8 9 8 2 0 6 -4 9 -8z m8 -144 c-2
-21 -8 -38 -14 -38 -5 0 -6 10 -3 23 4 12 9 30 12 40 8 29 11 16 5 -25z m22
-112 c-3 -9 -1 -16 5 -16 6 0 11 -5 11 -10 0 -7 -6 -6 -17 1 -11 6 -19 26 -21
47 -2 36 -2 36 13 15 8 -12 12 -28 9 -37z m56 -6 c0 -5 -2 -10 -4 -10 -3 0 -8
5 -11 10 -3 6 -1 10 4 10 6 0 11 -4 11 -10z m81 -149 c-6 -10 -7 -22 -3 -26 4
-5 1 -5 -6 -1 -9 5 -9 12 -2 27 6 10 13 19 16 19 2 0 0 -8 -5 -19z m109 -181
c0 -5 -4 -10 -10 -10 -5 0 -10 5 -10 10 0 6 5 10 10 10 6 0 10 -4 10 -10z m8
-251 c-3 -8 -7 -3 -11 10 -4 17 -3 21 5 13 5 -5 8 -16 6 -23z m206 -365 c3 -8
2 -12 -4 -9 -6 3 -10 10 -10 16 0 14 7 11 14 -7z"/>
<path d="M1986 4423 c-6 -14 -5 -15 5 -6 7 7 10 15 7 18 -3 3 -9 -2 -12 -12z"/>
<path d="M2950 4480 c-8 -15 -8 -20 2 -20 10 0 10 -2 1 -8 -12 -8 -23 -74 -27
-160 -1 -32 -7 -56 -15 -61 -10 -7 -10 -10 -1 -13 10 -3 10 -9 1 -27 -7 -13
-9 -27 -4 -34 11 -15 10 -98 -1 -116 -7 -10 -6 -12 4 -6 10 6 12 4 7 -8 -8
-20 -9 -152 -3 -237 3 -36 8 -109 10 -163 5 -106 16 -193 48 -364 11 -61 17
-116 14 -121 -3 -6 -2 -12 2 -14 13 -5 41 -138 29 -138 -6 0 -6 -5 0 -12 14
-21 43 -111 45 -145 1 -7 5 -13 10 -13 5 0 6 -11 4 -24 -2 -14 2 -30 9 -36 8
-6 17 -25 20 -42 4 -17 20 -62 36 -101 16 -38 29 -80 29 -93 0 -13 6 -29 13
-36 8 -7 12 -20 10 -29 -3 -9 0 -20 6 -23 6 -4 11 -16 11 -27 0 -10 5 -19 10
-19 6 0 10 -6 10 -14 0 -7 7 -19 16 -27 22 -18 57 -96 49 -109 -3 -5 -2 -10 4
-10 5 0 22 -33 37 -72 16 -40 33 -76 39 -80 5 -4 6 -8 2 -8 -8 0 -2 -12 31
-61 9 -14 31 -49 47 -77 24 -41 37 -53 63 -58 23 -4 32 -11 28 -20 -7 -19 88
-114 114 -114 12 0 19 -4 15 -9 -3 -5 4 -12 15 -16 21 -7 28 -35 8 -35 -6 0
-2 -8 10 -18 17 -15 19 -21 9 -31 -18 -18 12 -6 218 92 201 95 256 119 262
114 2 -2 -72 -42 -164 -88 -211 -106 -314 -162 -285 -154 19 5 22 2 22 -19 0
-18 5 -26 17 -26 15 0 14 -2 -3 -15 -42 -32 10 -10 261 110 66 31 148 70 183
86 l63 29 -33 40 c-18 22 -36 40 -40 40 -5 0 -8 5 -8 10 0 6 -24 43 -53 83
-141 192 -342 553 -432 777 -158 394 -246 779 -276 1201 -11 156 -7 488 7 558
l7 31 -251 0 c-241 0 -252 -1 -262 -20z"/>
<path d="M3545 4488 c-6 -17 -1 -60 9 -76 4 -7 3 -12 -2 -12 -9 0 -7 -96 3
-137 3 -13 1 -23 -5 -23 -6 0 -9 -4 -6 -9 3 -4 8 -33 12 -62 4 -30 12 -57 18
-61 8 -6 7 -8 -1 -8 -9 0 -11 -11 -8 -35 7 -47 15 -103 22 -145 3 -19 6 -51 7
-70 2 -19 6 -44 10 -55 29 -77 33 -95 24 -89 -11 7 -1 -37 11 -46 11 -9 13
-42 2 -35 -6 3 -11 2 -11 -3 0 -6 7 -13 16 -16 10 -4 13 -13 9 -26 -5 -14 -2
-20 9 -20 19 0 19 -1 6 -35 -7 -17 -7 -24 0 -20 6 3 10 -3 10 -15 0 -12 5 -18
10 -15 13 8 13 -1 -1 -27 -10 -18 -9 -20 5 -15 14 6 15 3 6 -13 -8 -15 -8 -20
1 -20 7 0 10 -3 6 -6 -3 -4 3 -24 14 -46 11 -22 15 -37 9 -33 -9 5 -9 2 -2
-11 5 -11 12 -36 16 -56 5 -25 12 -38 23 -38 13 0 13 -3 3 -15 -10 -12 -10
-15 0 -15 7 0 10 -6 7 -14 -3 -8 0 -17 8 -19 8 -4 12 -19 11 -40 -1 -20 3 -33
9 -31 15 6 58 -97 45 -110 -17 -17 -12 -49 6 -42 11 4 15 2 11 -8 -7 -18 30
-10 56 12 9 8 19 13 22 10 11 -10 -7 -36 -33 -48 l-27 -12 24 -9 c18 -7 32 -4
59 13 l35 22 -24 -33 c-15 -20 -30 -31 -41 -28 -11 3 -15 0 -11 -9 6 -17 -9
-18 -26 -1 -11 10 -11 8 -2 -10 14 -27 14 -36 1 -28 -5 3 -10 2 -10 -3 0 -16
13 -22 27 -11 19 16 16 -1 -4 -25 -18 -20 -18 -20 9 -3 31 19 37 14 39 -34 3
-46 7 -51 29 -39 16 8 18 7 14 -4 -3 -8 -12 -17 -20 -20 -14 -5 -20 -27 -6
-24 4 0 15 -2 25 -6 21 -10 23 -30 2 -22 -8 3 -15 1 -15 -4 0 -6 5 -10 11 -10
6 0 9 -7 6 -15 -4 -8 -1 -17 5 -21 6 -4 8 -3 4 4 -3 6 -2 13 4 17 5 3 10 2 10
-4 0 -6 7 -8 15 -5 18 7 19 0 5 -26 -8 -15 -7 -18 2 -15 7 3 19 -4 26 -15 7
-12 8 -20 2 -20 -5 0 -10 -4 -10 -10 0 -5 6 -10 13 -10 12 0 25 14 47 50 5 8
12 11 17 7 4 -4 1 -17 -6 -28 -10 -18 -10 -24 5 -40 9 -10 12 -19 6 -19 -6 0
-14 5 -17 10 -9 14 -21 5 -28 -20 -4 -15 -1 -20 11 -18 12 2 16 -3 14 -21 -1
-17 2 -22 13 -18 8 4 17 1 21 -5 5 -7 -5 -9 -31 -6 -32 4 -35 3 -19 -9 16 -12
14 -13 -16 -13 -18 0 -30 -3 -26 -7 4 -4 21 -7 39 -8 24 0 32 -4 31 -18 -1 -9
13 -32 32 -49 18 -17 31 -35 29 -38 -3 -4 13 -15 34 -25 31 -14 40 -24 44 -51
3 -20 19 -45 39 -64 l33 -31 -37 22 c-21 11 -38 17 -38 11 0 -5 7 -13 16 -16
10 -4 14 -12 10 -22 -4 -10 1 -18 13 -21 11 -3 17 -11 15 -18 -3 -7 4 -16 15
-20 21 -6 24 -24 6 -38 -15 -12 33 1 92 26 l53 22 0 1253 0 1252 -475 0 c-371
0 -477 -3 -480 -12z m455 -1712 c0 -2 -7 -6 -15 -10 -8 -3 -15 -1 -15 4 0 6 7
10 15 10 8 0 15 -2 15 -4z m110 -138 c0 -5 -7 -8 -15 -8 -15 0 -20 21 -8 33 7
7 23 -11 23 -25z m137 -424 c-9 -9 -28 6 -21 18 4 6 10 6 17 -1 6 -6 8 -13 4
-17z"/>
<path d="M1051 4074 c0 -11 3 -14 6 -6 3 7 2 16 -1 19 -3 4 -6 -2 -5 -13z"/>
<path d="M1032 4040 c0 -14 2 -19 5 -12 2 6 2 18 0 25 -3 6 -5 1 -5 -13z"/>
<path d="M1006 3913 c-6 -14 -5 -15 5 -6 7 7 10 15 7 18 -3 3 -9 -2 -12 -12z"/>
<path d="M1056 3830 c3 -14 10 -32 15 -40 7 -13 8 -13 8 0 0 8 -6 26 -15 40
l-15 25 7 -25z"/>
<path d="M1920 3531 c0 -12 5 -21 10 -21 6 0 10 6 10 14 0 8 -4 18 -10 21 -5
3 -10 -3 -10 -14z"/>
<path d="M1091 3524 c0 -11 3 -14 6 -6 3 7 2 16 -1 19 -3 4 -6 -2 -5 -13z"/>
<path d="M1141 3490 c0 -29 1 -32 10 -17 7 11 7 23 0 35 -9 14 -10 11 -10 -18z"/>
<path d="M1920 3485 c0 -8 5 -15 10 -15 6 0 10 7 10 15 0 8 -4 15 -10 15 -5 0
-10 -7 -10 -15z"/>
<path d="M1952 3478 c-14 -14 -16 -28 -3 -28 9 0 24 30 18 36 -2 2 -9 -2 -15
-8z"/>
<path d="M1920 3381 c0 -5 5 -13 10 -16 6 -3 10 -2 10 4 0 5 -4 13 -10 16 -5
3 -10 2 -10 -4z"/>
<path d="M1950 3356 c0 -3 5 -17 12 -31 13 -28 31 -35 21 -7 -7 17 -33 48 -33
38z"/>
<path d="M1915 3340 c3 -5 11 -10 16 -10 6 0 7 5 4 10 -3 6 -11 10 -16 10 -6
0 -7 -4 -4 -10z"/>
<path d="M2033 3025 c-7 -8 -13 -22 -12 -32 0 -15 2 -14 11 5 6 12 15 22 20
22 4 0 8 5 8 10 0 14 -13 12 -27 -5z"/>
<path d="M2040 2868 c0 -13 -3 -34 -6 -48 -5 -23 -5 -24 7 -5 15 23 20 75 7
75 -4 0 -8 -10 -8 -22z"/>
<path d="M3941 2734 c0 -11 3 -14 6 -6 3 7 2 16 -1 19 -3 4 -6 -2 -5 -13z"/>
<path d="M1142 2670 c0 -14 2 -19 5 -12 2 6 2 18 0 25 -3 6 -5 1 -5 -13z"/>
<path d="M1132 2570 c0 -14 2 -19 5 -12 2 6 2 18 0 25 -3 6 -5 1 -5 -13z"/>
<path d="M2172 2506 c1 -13 6 -22 10 -20 11 7 10 32 -2 39 -6 3 -9 -4 -8 -19z"/>
<path d="M4045 2500 c3 -5 8 -10 11 -10 2 0 4 5 4 10 0 6 -5 10 -11 10 -5 0
-7 -4 -4 -10z"/>
<path d="M2150 2471 c0 -6 4 -13 10 -16 6 -3 7 1 4 9 -7 18 -14 21 -14 7z"/>
<path d="M2310 2393 c0 -12 -5 -23 -12 -25 -6 -2 -8 -10 -4 -17 6 -9 12 -5 22
15 10 19 11 31 4 38 -7 7 -10 3 -10 -11z"/>
<path d="M1231 2384 c0 -11 3 -14 6 -6 3 7 2 16 -1 19 -3 4 -6 -2 -5 -13z"/>
<path d="M1260 2341 c0 -5 5 -13 10 -16 6 -3 10 -2 10 4 0 5 -4 13 -10 16 -5
3 -10 2 -10 -4z"/>
<path d="M4156 2224 c-8 -21 -8 -24 5 -24 5 0 7 5 4 10 -3 6 -1 10 4 10 6 0
11 5 11 10 0 16 -17 12 -24 -6z"/>
<path d="M4180 2192 c0 -4 9 -8 19 -8 11 0 17 4 15 8 -3 4 -12 8 -20 8 -8 0
-14 -4 -14 -8z"/>
<path d="M4186 2149 c27 -44 54 -57 54 -26 0 7 -4 6 -10 -3 -8 -13 -10 -13
-10 2 0 10 -10 22 -21 29 -17 9 -20 8 -13 -2z"/>
<path d="M2304 2043 c-1 -21 1 -29 3 -19 4 15 7 16 14 5 7 -12 9 -11 9 2 0 8
-6 23 -12 32 -11 15 -13 12 -14 -20z"/>
<path d="M4260 2038 c0 -19 2 -20 10 -8 13 19 13 30 0 30 -5 0 -10 -10 -10
-22z"/>
<path d="M1405 2030 c3 -5 8 -10 11 -10 2 0 4 5 4 10 0 6 -5 10 -11 10 -5 0
-7 -4 -4 -10z"/>
<path d="M4280 2002 c0 -5 7 -15 15 -22 8 -7 15 -8 15 -2 0 5 -7 15 -15 22 -8
7 -15 8 -15 2z"/>
<path d="M4452 1954 c-41 -24 -42 -27 -24 -39 10 -8 31 -17 45 -20 26 -7 27
-6 27 39 0 25 -1 46 -2 46 -2 0 -22 -12 -46 -26z"/>
<path d="M1342 1880 c0 -14 2 -19 5 -12 2 6 2 18 0 25 -3 6 -5 1 -5 -13z"/>
<path d="M4425 1840 c-3 -6 1 -7 9 -4 18 7 21 14 7 14 -6 0 -13 -4 -16 -10z"/>
<path d="M4395 1600 c-3 -5 -1 -10 4 -10 6 0 11 5 11 10 0 6 -2 10 -4 10 -3 0
-8 -4 -11 -10z"/>
<path d="M4425 1550 c-3 -6 1 -7 9 -4 18 7 21 14 7 14 -6 0 -13 -4 -16 -10z"/>
<path d="M3570 1525 c-23 -14 -287 -143 -695 -340 -138 -66 -246 -126 -201
-111 17 6 17 5 3 -17 -12 -19 -12 -26 -2 -40 12 -16 31 -9 236 87 270 126 771
365 777 371 7 7 -62 64 -78 64 -8 0 -26 -6 -40 -14z"/>
<path d="M1596 1250 c3 -19 6 -41 7 -47 0 -7 4 -13 9 -13 9 0 1 40 -14 75 -6
14 -7 9 -2 -15z"/>
<path d="M1402 1013 c-83 -53 -100 -68 -91 -79 9 -11 5 -14 -25 -14 -28 0 -78
-26 -238 -123 -392 -239 -701 -432 -960 -600 l-88 -57 0 -70 0 -70 2250 0
2250 0 0 245 c0 135 -3 245 -6 245 -3 0 -14 -5 -26 -11 -11 -6 -22 -8 -25 -6
-3 3 9 13 26 22 33 17 45 53 14 40 -52 -21 -75 -27 -81 -20 -4 3 1 11 11 16 9
6 15 14 12 19 -3 5 12 21 35 35 36 22 40 30 40 65 0 21 -4 41 -9 44 -5 3 -33
-8 -62 -24 -30 -16 -67 -30 -84 -30 -45 0 -74 -11 -69 -24 3 -7 -11 -21 -30
-31 -22 -12 -31 -22 -24 -26 13 -8 -44 -47 -82 -55 -14 -3 -35 -10 -48 -15
-30 -12 -45 -12 -37 1 3 5 24 14 47 21 52 13 88 37 82 52 -2 7 9 21 26 30 17
10 28 22 26 26 -9 13 89 59 164 76 107 24 110 26 75 38 -45 16 -126 -11 -295
-98 -14 -7 -54 -21 -90 -30 -36 -10 -75 -24 -87 -31 -11 -7 -43 -19 -70 -25
-26 -7 -58 -19 -70 -26 -12 -8 -26 -15 -30 -15 -13 -1 -37 -9 -54 -18 -9 -4
-22 -4 -30 1 -19 12 -42 11 -34 -1 7 -11 -17 -14 -28 -4 -7 8 30 44 46 44 19
0 131 62 165 90 31 28 46 34 80 31 13 0 40 8 60 19 l37 19 -32 -6 c-37 -6 -42
2 -15 24 9 8 -12 -1 -48 -20 -36 -19 -83 -38 -105 -42 -35 -6 -38 -8 -23 -19
15 -11 14 -14 -13 -30 -16 -10 -44 -22 -62 -27 l-32 -9 30 25 c17 13 37 25 45
25 9 1 10 3 3 6 -12 5 -95 -42 -101 -58 -2 -4 -8 -5 -14 -2 -5 3 -12 -3 -15
-14 -2 -11 -16 -25 -29 -31 -13 -6 -24 -15 -24 -21 0 -5 -7 -10 -15 -10 -8 0
-15 7 -15 15 0 8 6 15 14 15 19 0 31 19 19 31 -6 6 -21 0 -39 -16 -31 -27 -30
-28 19 -56 12 -7 17 -6 17 2 0 8 5 7 16 -2 14 -11 9 -16 -43 -40 -32 -14 -64
-24 -71 -22 -7 3 -20 -1 -30 -9 -9 -8 -26 -18 -37 -22 -16 -6 -15 -3 6 16 14
13 34 28 44 34 10 6 21 16 23 22 4 14 -25 17 -30 3 -1 -5 -19 -12 -38 -15 -35
-7 -35 -7 13 21 32 19 45 33 42 43 -4 8 -3 11 1 8 9 -10 36 20 29 32 -3 5 -11
10 -16 10 -6 0 -8 -4 -5 -9 3 -5 -1 -11 -9 -15 -8 -3 -15 -12 -15 -21 0 -8 -5
-15 -12 -15 -17 0 -79 -50 -73 -60 3 -4 -1 -11 -7 -13 -8 -3 -6 -6 5 -6 21 -1
22 -17 1 -25 -8 -3 -12 -10 -9 -16 4 -6 10 -8 14 -6 4 3 8 -1 8 -9 0 -9 -5
-11 -11 -6 -6 4 -19 11 -30 15 -13 4 -17 2 -13 -8 8 -19 -23 -9 -40 13 -11 14
-12 14 -13 1 0 -9 -10 -2 -26 18 -14 17 -30 32 -36 32 -7 0 -6 -5 1 -14 9 -11
8 -17 -8 -28 -20 -14 -20 -14 2 -28 12 -7 24 -13 27 -13 15 2 39 -19 34 -30
-3 -8 29 -42 75 -81 l80 -67 38 25 c42 29 84 37 61 12 -7 -8 -15 -14 -18 -13
-14 1 -69 -30 -63 -36 3 -4 0 -7 -8 -7 -8 0 -22 8 -30 18 -9 9 -47 42 -85 72
-38 30 -99 84 -136 119 l-67 63 -48 -18 c-26 -10 -57 -23 -68 -30 -11 -7 -36
-15 -55 -19 -19 -4 -64 -23 -99 -41 -67 -36 -112 -47 -75 -19 31 23 3 17 -45
-11 -25 -13 -56 -26 -70 -28 -26 -3 -69 -20 -151 -59 -24 -12 -48 -21 -52 -20
-4 2 -8 -2 -8 -8 0 -7 -10 -5 -26 5 -14 10 -31 15 -37 12 -7 -2 -4 -5 7 -5 15
-1 16 -3 6 -16 -9 -11 -17 -12 -23 -6 -7 7 -19 5 -36 -4 -56 -30 -57 -32 -38
-53 15 -16 15 -20 4 -25 -9 -3 -14 1 -13 11 2 25 -26 24 -58 -3 -26 -21 -28
-26 -16 -42 8 -10 2 -7 -13 6 -29 27 -37 19 -10 -11 9 -10 12 -18 7 -18 -5 0
-45 38 -88 85 -43 47 -81 83 -84 80 -4 -3 0 -10 8 -15 13 -8 13 -10 -1 -10 -9
0 -35 -14 -57 -30 -23 -17 -42 -26 -42 -20 0 5 16 20 35 32 19 13 35 26 35 30
0 11 -64 -16 -81 -35 -10 -10 -23 -15 -33 -11 -10 4 -27 2 -39 -3 -73 -33 -97
-42 -97 -34 0 5 -7 11 -17 13 -12 2 -11 5 8 14 13 6 52 24 86 40 35 16 63 33
63 38 0 4 8 5 18 1 14 -5 15 -4 4 7 -10 10 -16 10 -34 -1 -37 -23 -88 -51 -94
-51 -3 0 -2 5 1 10 9 14 -7 13 -61 -6 -25 -8 -49 -13 -52 -9 -3 3 4 8 16 12
12 3 22 9 22 14 0 5 6 6 14 3 7 -3 16 2 19 10 4 9 12 16 19 16 9 0 8 -3 -2
-10 -11 -7 -11 -10 -2 -10 19 0 63 31 57 41 -7 11 73 69 94 69 9 0 -8 -15 -38
-32 -30 -18 -49 -34 -42 -36 7 -2 20 3 29 12 11 9 27 13 41 9 16 -4 22 -3 17
5 -3 6 -1 14 5 18 8 4 9 3 5 -5 -6 -9 0 -10 21 -5 33 8 29 1 -12 -20 -21 -11
-24 -16 -12 -16 11 0 15 -4 11 -11 -4 -7 7 -3 25 7 34 20 35 34 4 49 -11 6
-18 15 -16 20 5 17 -16 42 -24 29 -5 -6 -26 -17 -48 -24 -33 -11 -119 -47
-160 -69 -5 -3 -4 2 3 11 7 9 23 19 35 22 12 3 35 21 50 41 30 37 23 49 -8 15
-10 -12 -25 -18 -32 -15 -8 2 -11 1 -8 -4 7 -12 -12 -24 -25 -16 -8 5 -7 11 1
21 6 8 9 17 5 21 -8 8 -47 -27 -40 -38 5 -9 -35 -33 -43 -25 -3 3 5 10 18 15
21 9 22 10 4 11 -11 1 -14 4 -7 7 6 2 12 9 12 14 0 22 -47 -16 -62 -52 -11
-25 -23 -39 -35 -39 -17 1 -17 1 1 15 11 8 20 24 21 35 2 18 0 19 -15 5 -10
-9 -21 -15 -26 -14 -5 1 -26 -5 -46 -14 -21 -10 -44 -17 -51 -17 -8 0 -20 -7
-27 -15 -7 -9 -18 -14 -24 -12 -6 3 -19 0 -28 -5 -11 -5 -18 -5 -18 1 0 5 14
12 30 16 17 4 30 11 30 16 0 5 12 12 28 16 15 3 56 21 91 40 35 18 67 33 72
33 4 0 25 10 46 22 37 22 64 34 151 65 42 15 56 33 27 33 -9 0 -30 -7 -47 -16
-16 -9 -27 -11 -24 -5 9 14 0 14 -25 1 -10 -6 -19 -15 -19 -21 0 -6 5 -7 12
-3 7 4 8 3 4 -4 -4 -6 -13 -9 -21 -6 -8 3 -34 -8 -59 -26 -35 -23 -44 -26 -39
-13 6 17 5 17 -13 2 -35 -30 -124 -71 -118 -54 4 8 10 15 16 15 5 0 7 4 4 9
-8 12 -66 -2 -99 -24 -15 -10 -30 -15 -34 -11 -3 3 -12 1 -18 -4 -7 -6 -26
-12 -43 -13 -17 -1 -28 -4 -26 -6 2 -3 -26 -15 -63 -29 -61 -21 -81 -26 -133
-31 -13 -1 -13 -2 0 -11 12 -7 11 -10 -5 -15 -11 -4 -30 -11 -43 -16 -29 -12
-35 -11 -27 1 9 14 -1 12 -36 -6 -17 -8 -43 -17 -59 -19 -45 -5 -71 -16 -65
-25 6 -9 -63 -35 -72 -26 -3 3 6 8 21 12 14 3 23 11 19 17 -3 5 -1 7 4 4 6 -4
16 -1 22 7 9 11 9 15 -1 18 -8 3 -6 7 6 11 12 5 15 3 11 -6 -4 -6 0 -4 9 7 8
10 25 24 38 30 40 21 73 39 88 48 8 4 27 13 43 19 15 6 27 15 27 21 0 5 4 7 8
4 4 -2 14 -1 21 3 10 6 9 10 -4 14 -10 5 -14 3 -9 -5 4 -6 3 -8 -3 -5 -15 9
-114 -33 -107 -45 4 -6 -2 -7 -16 -3 -17 5 -21 4 -15 -5 5 -9 4 -11 -3 -6 -6
4 -21 2 -33 -4 -11 -7 -23 -10 -25 -7 -3 2 44 26 103 52 60 27 223 101 363
165 140 65 286 132 323 149 l69 31 -23 32 c-13 18 -27 35 -31 36 -4 2 -8 7 -8
11 0 4 -30 57 -66 117 -36 60 -88 151 -116 202 -27 50 -55 92 -61 91 -7 0 -58
-30 -115 -66z m3079 -357 c-7 -8 -24 -17 -39 -21 -37 -9 -112 -44 -144 -66
-15 -11 -29 -15 -32 -10 -4 5 26 25 66 44 152 72 169 78 149 53z m-306 -56 c3
-5 1 -10 -4 -10 -6 0 -11 5 -11 10 0 6 2 10 4 10 3 0 8 -4 11 -10z m-2575 -15
c-14 -8 -29 -14 -35 -14 -5 0 1 6 15 14 14 8 30 14 35 14 6 0 -1 -6 -15 -14z
m2790 -18 c-8 -7 -20 -21 -25 -31 -11 -19 -75 -51 -75 -36 0 5 8 13 17 19 10
5 15 12 12 16 -8 8 -99 -36 -94 -46 6 -9 -24 -33 -32 -25 -3 3 -1 6 7 6 9 0
10 3 1 14 -12 14 -10 16 129 79 19 9 44 16 55 16 17 0 18 -1 5 -12z m-320 -7
c-8 -5 -25 -10 -36 -10 -12 0 -24 -6 -27 -14 -9 -23 3 -26 34 -10 16 8 29 10
29 5 0 -13 -32 -31 -95 -54 -85 -31 -86 -31 -80 -15 8 19 48 38 80 38 26 0 33
14 14 25 -19 13 18 40 58 42 28 2 34 0 23 -7z m263 -76 c11 -12 -41 -44 -85
-53 -24 -5 -56 -16 -73 -25 -16 -9 -39 -16 -50 -16 -11 0 -46 -15 -77 -34 -54
-33 -74 -40 -110 -37 -11 1 -15 7 -11 21 3 11 10 17 15 14 5 -3 12 4 15 15 6
22 30 24 26 2 -5 -18 24 -13 77 14 27 14 53 24 57 23 5 -1 27 8 50 20 23 12
50 22 60 22 10 1 34 9 53 20 39 21 44 23 53 14z m-583 -14 c0 -5 -4 -10 -10
-10 -5 0 -10 5 -10 10 0 6 5 10 10 10 6 0 10 -4 10 -10z m297 -22 c-3 -8 -6
-5 -6 6 -1 11 2 17 5 13 3 -3 4 -12 1 -19z m-61 -25 c-11 -11 -17 4 -9 23 7
18 8 18 11 1 2 -10 1 -21 -2 -24z m-250 -8 c-11 -8 -25 -15 -30 -15 -6 0 -2 7
8 15 11 8 25 15 30 15 6 0 2 -7 -8 -15z m49 -15 c-9 -14 -85 -52 -85 -43 0 8
69 52 83 53 5 0 5 -5 2 -10z m-487 -34 c-7 -8 -15 -12 -17 -11 -5 6 10 25 20
25 5 0 4 -6 -3 -14z m539 8 c-3 -3 -12 -4 -19 -1 -8 3 -5 6 6 6 11 1 17 -2 13
-5z m-641 -19 c-11 -8 -25 -15 -30 -15 -6 0 -2 7 8 15 11 8 25 15 30 15 6 0 2
-7 -8 -15z m392 -12 c-2 -12 -14 -18 -41 -18 -44 -2 -48 9 -9 23 41 15 54 14
50 -5z m-238 -3 c0 -5 -2 -10 -4 -10 -3 0 -8 5 -11 10 -3 6 -1 10 4 10 6 0 11
-4 11 -10z m-80 -31 c0 -3 -12 -11 -27 -18 -23 -11 -25 -10 -13 3 7 9 11 16 8
16 -8 0 -123 -42 -140 -51 -29 -15 -21 -2 13 22 49 34 121 57 142 45 9 -6 17
-14 17 -17z m160 23 c0 -4 -10 -13 -21 -20 -19 -12 -24 -11 -38 4 -9 9 -10 14
-4 10 7 -4 21 -2 30 3 22 13 33 14 33 3z m60 -7 c0 -2 -19 -14 -42 -26 -36
-18 -40 -19 -28 -4 18 22 70 44 70 30z m-450 -13 c0 -11 -60 -45 -67 -39 -3 3
10 15 28 26 39 24 39 24 39 13z m790 -6 c0 -7 -128 -84 -151 -91 -13 -4 10 16
51 44 65 44 100 61 100 47z m138 -22 c-9 -9 -22 -14 -30 -11 -8 3 -4 8 12 15
35 15 37 14 18 -4z m-2478 -48 c0 -3 -4 -8 -10 -11 -5 -3 -10 -1 -10 4 0 6 5
11 10 11 6 0 10 -2 10 -4z m135 -15 c-3 -6 -11 -11 -17 -11 -6 0 -6 6 2 15 14
17 26 13 15 -4z m135 -12 c-29 -19 -70 -39 -70 -34 0 7 63 45 75 45 6 0 3 -5
-5 -11z m935 1 c-3 -5 -12 -10 -18 -10 -7 0 -6 4 3 10 19 12 23 12 15 0z m530
-10 c-3 -5 -11 -10 -16 -10 -6 0 -7 5 -4 10 3 6 11 10 16 10 6 0 7 -4 4 -10z
m-345 -15 c-33 -19 -50 -18 -26 0 11 8 27 15 35 15 10 -1 7 -6 -9 -15z m-1950
-10 c-14 -8 -29 -14 -35 -14 -5 0 1 6 15 14 14 8 30 14 35 14 6 0 -1 -6 -15
-14z m2115 -25 c-3 -5 -11 -10 -16 -10 -6 0 -7 5 -4 10 3 6 11 10 16 10 6 0 7
-4 4 -10z m365 -5 c0 -2 -9 -9 -20 -15 -12 -6 -20 -7 -20 -1 0 5 8 12 18 14 9
3 18 5 20 6 1 0 2 -1 2 -4z m-2585 -15 c-3 -5 -12 -10 -18 -10 -7 0 -6 4 3 10
19 12 23 12 15 0z m890 0 c-3 -5 -12 -10 -18 -10 -7 0 -6 4 3 10 19 12 23 12
15 0z m700 -20 c-16 -10 -31 -17 -34 -14 -7 6 32 33 49 34 8 0 2 -9 -15 -20z
m-455 -4 c0 -3 -4 -8 -10 -11 -5 -3 -10 -1 -10 4 0 6 5 11 10 11 6 0 10 -2 10
-4z"/>
<path d="M2435 977 c-224 -108 -565 -279 -541 -272 16 5 17 3 7 -9 -7 -8 -11
-23 -9 -33 2 -10 -3 -24 -12 -30 -34 -28 178 67 673 301 l118 55 -23 35 c-13
20 -27 36 -33 35 -5 0 -86 -37 -180 -82z"/>
<path d="M1756 947 c6 -18 42 -38 48 -28 3 5 -5 16 -19 25 -29 19 -36 20 -29
3z"/>
<path d="M4475 930 c3 -5 11 -10 16 -10 6 0 7 5 4 10 -3 6 -11 10 -16 10 -6 0
-7 -4 -4 -10z"/>
<path d="M4418 914 c-16 -8 -28 -17 -28 -19 0 -10 16 -4 40 15 30 23 25 25
-12 4z"/>
<path d="M4442 878 c-7 -7 -12 -18 -12 -26 0 -8 -8 -21 -17 -29 -10 -8 2 -4
26 8 33 16 41 23 30 30 -10 6 -10 9 -1 9 6 0 12 5 12 10 0 14 -23 13 -38 -2z"/>
<path d="M4290 855 c-14 -8 -20 -14 -15 -14 6 0 21 6 35 14 14 8 21 14 15 14
-5 0 -21 -6 -35 -14z"/>
<path d="M4385 859 c-4 -6 -5 -12 -2 -15 7 -7 37 7 37 17 0 13 -27 11 -35 -2z"/>
<path d="M4274 784 c-48 -25 -50 -34 -8 -27 46 7 74 27 51 36 -8 3 -27 -1 -43
-9z"/>
<path d="M4123 758 c-31 -15 -29 -30 2 -16 14 6 25 15 25 20 0 9 1 10 -27 -4z"/>
<path d="M4007 739 c-21 -11 -46 -17 -57 -14 -23 7 -37 -13 -14 -22 10 -4 41
6 78 25 34 18 54 32 46 31 -8 0 -32 -9 -53 -20z"/>
<path d="M4113 713 c-39 -15 -42 -23 -10 -23 27 0 51 14 46 27 -2 6 -17 4 -36
-4z"/>
<path d="M4288 723 c7 -3 16 -2 19 1 4 3 -2 6 -13 5 -11 0 -14 -3 -6 -6z"/>
<path d="M3895 690 c-3 -5 -1 -10 4 -10 6 0 11 5 11 10 0 6 -2 10 -4 10 -3 0
-8 -4 -11 -10z"/>
<path d="M3794 664 c-37 -18 -74 -50 -74 -64 0 -19 19 -9 66 35 26 25 45 45
43 45 -2 0 -18 -7 -35 -16z"/>
<path d="M4118 649 c-31 -17 -19 -30 12 -14 17 9 30 18 30 20 0 8 -24 5 -42
-6z"/>
<path d="M3978 613 c6 -2 18 -2 25 0 6 3 1 5 -13 5 -14 0 -19 -2 -12 -5z"/>
<path d="M3463 580 c-18 -11 -33 -22 -33 -25 0 -2 16 5 35 16 19 12 35 23 35
25 0 6 -3 5 -37 -16z"/>
<path d="M3620 590 c-9 -6 -10 -10 -3 -10 6 0 15 5 18 10 8 12 4 12 -15 0z"/>
<path d="M3690 582 c0 -5 -10 -14 -22 -20 -16 -7 -18 -11 -7 -11 9 -1 24 8 34
19 10 11 13 20 7 20 -7 0 -12 -4 -12 -8z"/>
<path d="M3880 581 c0 -5 9 -7 20 -4 11 3 20 7 20 9 0 2 -9 4 -20 4 -11 0 -20
-4 -20 -9z"/>
<path d="M3350 540 c-25 -16 -40 -30 -35 -30 11 0 85 48 85 55 0 8 -3 6 -50
-25z"/>
<path d="M3472 547 c-21 -16 -28 -27 -21 -34 6 -6 -4 -14 -31 -23 -22 -7 -40
-17 -40 -21 0 -4 -16 -6 -35 -4 -19 2 -42 -3 -52 -12 -17 -13 -16 -13 4 -4 30
15 42 13 20 -3 -16 -13 -16 -14 0 -27 9 -8 14 -9 10 -3 -4 7 2 14 13 17 11 3
18 2 15 -3 -3 -4 4 -10 15 -13 23 -6 27 -27 5 -27 -8 0 -15 -4 -15 -10 0 -14
11 -12 35 5 19 15 19 15 -3 31 -24 17 -30 39 -8 31 8 -3 17 1 20 9 3 8 14 14
25 14 21 0 45 32 34 44 -3 3 7 17 23 31 37 31 28 33 -14 2z"/>
<path d="M3588 563 c-10 -2 -18 -9 -18 -14 0 -14 26 -11 40 6 13 15 9 16 -22
8z"/>
<path d="M3410 510 c-9 -6 -10 -10 -3 -10 6 0 15 5 18 10 8 12 4 12 -15 0z"/>
<path d="M444 484 c-18 -14 -18 -15 4 -4 12 6 22 13 22 15 0 8 -5 6 -26 -11z"/>
<path d="M3558 488 c-9 -21 8 -46 22 -32 7 7 6 16 -3 28 -12 16 -15 16 -19 4z"/>
<path d="M3090 470 c-9 -6 -10 -10 -3 -10 6 0 15 5 18 10 8 12 4 12 -15 0z"/>
<path d="M208 347 c-115 -67 -208 -125 -208 -129 0 -7 393 224 415 243 21 20
-9 3 -207 -114z"/>
<path d="M1856 444 c-22 -21 -20 -27 5 -13 15 8 19 8 15 0 -8 -13 -4 -14 18
-5 9 3 16 10 16 16 0 5 -4 6 -10 3 -5 -3 -10 -1 -10 4 0 16 -16 13 -34 -5z"/>
<path d="M3125 417 l-20 -20 25 13 c32 16 33 17 23 23 -4 2 -17 -5 -28 -16z"/>
<path d="M3212 422 c-22 -14 22 -47 45 -33 16 10 15 10 -6 8 -13 -1 -26 4 -29
12 -3 8 0 11 7 7 6 -4 11 -2 11 3 0 13 -10 14 -28 3z"/>
<path d="M3030 375 c-17 -10 -20 -14 -9 -15 9 0 22 7 29 15 15 18 12 18 -20 0z"/>
<path d="M1898 363 c-21 -8 -38 -19 -38 -24 0 -11 14 -12 23 -2 4 3 18 7 32 8
l25 1 -27 -28 c-36 -37 -23 -45 31 -19 l45 21 -17 30 c-19 34 -23 35 -74 13z"/>
<path d="M2955 370 c-3 -6 1 -7 9 -4 18 7 21 14 7 14 -6 0 -13 -4 -16 -10z"/>
<path d="M2720 350 c-13 -11 -19 -20 -14 -20 14 1 48 29 42 35 -2 3 -15 -4
-28 -15z"/>
<path d="M2985 360 c-3 -5 -1 -10 4 -10 6 0 11 5 11 10 0 6 -2 10 -4 10 -3 0
-8 -4 -11 -10z"/>
<path d="M1646 335 c-11 -8 -15 -15 -10 -15 6 0 19 7 30 15 10 8 15 14 9 14
-5 0 -19 -6 -29 -14z"/>
<path d="M2808 327 c-44 -24 -51 -43 -11 -24 27 12 70 48 56 46 -5 0 -25 -10
-45 -22z"/>
<path d="M1815 330 c-3 -6 1 -7 9 -4 18 7 21 14 7 14 -6 0 -13 -4 -16 -10z"/>
<path d="M2910 329 c0 -5 5 -7 10 -4 6 3 10 8 10 11 0 2 -4 4 -10 4 -5 0 -10
-5 -10 -11z"/>
<path d="M1242 311 c-11 -7 -10 -9 3 -14 9 -4 14 -3 10 2 -3 5 1 12 7 14 7 3
9 6 3 6 -5 0 -16 -3 -23 -8z"/>
<path d="M1840 310 c0 -5 5 -10 10 -10 6 0 10 5 10 10 0 6 -4 10 -10 10 -5 0
-10 -4 -10 -10z"/>
<path d="M1213 285 c0 -7 6 -11 14 -8 7 3 13 6 13 8 0 2 -6 5 -13 8 -8 3 -14
-1 -14 -8z"/>
<path d="M2678 272 c-28 -17 -36 -32 -18 -32 6 0 10 3 10 8 0 4 12 15 28 24
15 10 23 17 17 17 -5 0 -22 -7 -37 -17z"/>
<path d="M2580 250 c-9 -6 -10 -10 -3 -10 6 0 15 5 18 10 8 12 4 12 -15 0z"/>
<path d="M2587 229 c-22 -11 -37 -22 -34 -25 2 -2 17 2 33 11 16 8 35 15 42
15 6 0 12 5 12 10 0 14 -9 12 -53 -11z"/>
<path d="M48 212 c-27 -15 -48 -30 -48 -34 0 -4 23 7 50 24 28 17 50 33 50 34
0 6 -2 5 -52 -24z"/>
<path d="M1911 199 c-19 -10 -39 -23 -45 -30 -21 -22 36 2 63 27 30 28 28 28
-18 3z"/>
<path d="M2445 210 c-8 -13 15 -13 35 0 12 8 11 10 -7 10 -12 0 -25 -4 -28
-10z"/>
<path d="M2040 190 c-8 -5 -10 -10 -5 -10 6 0 17 5 25 10 8 5 11 10 5 10 -5 0
-17 -5 -25 -10z"/>
<path d="M2500 190 c-13 -8 -12 -10 3 -10 9 0 17 5 17 10 0 12 -1 12 -20 0z"/>
<path d="M1025 160 c-3 -5 -1 -10 4 -10 6 0 11 5 11 10 0 6 -2 10 -4 10 -3 0
-8 -4 -11 -10z"/>
<path d="M1125 160 c-3 -6 1 -7 9 -4 18 7 21 14 7 14 -6 0 -13 -4 -16 -10z"/>
<path d="M2335 160 c-3 -6 1 -7 9 -4 18 7 21 14 7 14 -6 0 -13 -4 -16 -10z"/>
<path d="M2257 102 c4 -17 1 -21 -15 -17 -13 2 -19 -1 -16 -9 7 -17 44 -17 51
0 3 9 -1 23 -10 31 -15 15 -15 14 -10 -5z"/>
</g>
</svg>
